<?xml version="1.0" encoding="utf-8"?>
<!-- Generator: Adobe Illustrator 22.1.0, SVG Export Plug-In . SVG Version: 6.00 Build 0)  -->
<svg version="1.1" id="Layer_1" xmlns="http://www.w3.org/2000/svg" xmlns:xlink="http://www.w3.org/1999/xlink" x="0px" y="0px"
	 viewBox="0 0 500 500" style="enable-background:new 0 0 500 500;" xml:space="preserve">
<style type="text/css">
	.st0{fill:#FFFEFE;}
	.st1{fill:none;stroke:#E36C65;stroke-width:3;stroke-miterlimit:10;}
	.st2{fill:#E36C65;}
	.st3{fill:#FDD8A2;}
	.st4{fill:#F3B260;}
	.st5{fill:none;}
</style>
<path class="st0" d="M484.9,246.8c0,131.4-106.5,237.8-237.8,237.8S9.2,378.2,9.2,246.8S115.7,9,247,9S484.9,115.4,484.9,246.8"/>
<circle class="st1" cx="247" cy="246.8" r="237.8"/>
<polygon class="st2" points="435.8,257.2 426.2,256.4 421.2,247.1 416.2,256.4 406.5,257.2 414.5,264.6 411.7,274.7 421.2,268.2 
	430.6,274.7 427.8,264.6 "/>
<polygon class="st2" points="90.8,264.1 81.1,263.3 76.1,254 71.1,263.3 61.5,264.1 69.5,271.5 66.7,281.6 76.1,275.1 85.6,281.6 
	82.8,271.5 "/>
<path class="st2" d="M119.6,389.2c-0.4,0-0.9,0-1.4-0.2c-0.5-0.2-1-0.5-1.3-0.8c-0.3-0.4-0.4-0.8-0.3-1.3c0.1-0.5,0.5-1,1.3-1.6
	l17.3-0.6c0.6,0.1,1.1,0.3,1.6,0.5c0.5,0.3,0.8,0.6,0.9,0.9c0.2,0.4,0.2,0.7,0,1.1c-0.2,0.4-0.6,0.8-1.3,1.1L119.6,389.2z"/>
<path class="st2" d="M144.4,409.9c-0.3-1.2-0.4-3-0.3-5.5c0.1-2.5,0.3-5.2,0.6-8.4c0.3-3.1,0.6-6.4,1-9.9c0.4-3.5,0.7-6.9,1-10.2
	s0.5-6.3,0.5-9c0.1-2.7,0-4.9-0.3-6.5c-0.3-1.6-0.8-2.5-1.6-2.7c-0.8-0.2-1.9,0.6-3.4,2.4c-0.1,0.1-0.3,0.1-0.6,0.1s-0.5,0-0.6-0.1
	c-0.1-0.7,0-1.5,0.4-2.4c0.4-0.9,0.9-1.7,1.5-2.5c0.6-0.7,1.3-1.3,2.1-1.7c0.8-0.4,1.6-0.5,2.3-0.2c0.8,0.3,1.5,1,2.1,2.1
	c0.7,1.2,1.2,2.9,1.5,5.3c0.4,2.4,0.5,5.5,0.4,9.4c-0.1,3.8-0.4,8.6-1.1,14.2c2.3-2.8,4.6-4.7,6.8-5.5c2.2-0.8,4.1-0.9,5.8-0.3
	c1.6,0.7,2.9,1.9,3.8,3.8c0.9,1.9,1.3,4.2,1.1,6.8c-0.2,2.6-1,5.5-2.5,8.7c-1.5,3.1-3.8,6.3-6.9,9.4c-0.6,0.5-1.4,0.9-2.3,1.2
	c-0.9,0.3-1.8,0.4-2.7,0.4c-0.9,0-1.9-0.1-2.7-0.4c-0.9-0.3-1.6-0.7-2.2-1.3c0,0.5,0,0.9-0.2,1.3c-0.2,0.4-0.5,0.8-0.8,1
	c-0.4,0.3-0.8,0.4-1.3,0.5C145.4,410.3,144.9,410.2,144.4,409.9 M148.9,403.3c1.5,1.3,3,1.8,4.5,1.5c1.5-0.3,2.9-1.1,4.2-2.4
	c1.3-1.3,2.4-2.9,3.4-4.8c1-1.9,1.8-3.9,2.3-5.9c0.5-2,0.8-3.8,0.7-5.5c-0.1-1.7-0.5-2.9-1.3-3.7c-0.8-0.8-2.1-0.9-3.8-0.4
	c-1.7,0.5-3.9,1.9-6.7,4.3c-0.9,1.1-1.6,2.2-2,3.5c-0.4,1.2-0.7,2.5-0.9,3.9c-0.2,1.4-0.3,2.9-0.3,4.4
	C149,399.8,149,401.5,148.9,403.3"/>
<path class="st2" d="M194.3,454.2c-3.4,0-6.2-0.5-8.3-1.6c-2.1-1.1-3.7-2.6-4.8-4.4c-1.1-1.8-1.6-3.9-1.8-6.3
	c-0.1-2.4,0.1-4.9,0.7-7.4c0.6-2.5,1.5-5.1,2.7-7.6c1.2-2.6,2.6-4.9,4.1-7c1.5-2.1,3.2-4,5-5.6c1.8-1.6,3.6-2.7,5.3-3.3l-0.1-22.6
	c-2.1,6.2-4.1,11-6,14.4c-1.9,3.3-3.6,5.5-5.1,6.5c-1.5,1-2.8,0.9-3.9-0.2c-1.1-1.1-1.9-2.9-2.4-5.6c0.4-5.8,0.4-10.6,0.2-14.4
	c-0.2-3.8-0.8-6.3-1.6-7.6c-0.8-1.3-1.8-1.2-3.1,0.3c-1.3,1.5-2.8,4.6-4.6,9.3c-0.5-1.2-0.6-2.5-0.6-3.8c0.1-1.3,0.3-2.5,0.8-3.8
	c0.5-1.2,1-2.4,1.7-3.5c0.7-1.1,1.4-2.1,2.2-2.8c0.8-0.8,1.6-1.4,2.3-1.8c0.8-0.4,1.4-0.5,2-0.3c1,0.5,1.8,1.5,2.4,2.9
	c0.5,1.5,0.9,3.2,1.2,5.2c0.2,2,0.3,4.1,0.4,6.4c0,2.3,0,4.4,0,6.5c0,2.1,0,3.9,0.1,5.6c0.1,1.6,0.3,2.9,0.6,3.6
	c0.3,0.8,0.8,1,1.5,0.6c0.7-0.4,1.6-1.5,2.8-3.4c1.4-2.5,2.6-5.1,3.7-7.8c1.1-2.7,2.1-5.2,3-7.7c0.9-2.4,1.8-4.6,2.7-6.4
	c0.9-1.9,1.7-3.3,2.7-4.1c0.9-0.9,1.9-1.1,3-0.8c1.1,0.4,2.3,1.6,3.6,3.7c0.5,0.1,0.8,0.6,0.8,1.3c0.1,0.7,0,1.4-0.2,2
	c-0.2,0.6-0.6,1-1,1.2c-0.5,0.2-0.9-0.2-1.5-1.2c-0.8-1.8-1.4-2.8-2-3.2c-0.5-0.4-1-0.2-1.4,0.4c-0.4,0.6-0.6,1.7-0.8,3.1
	c-0.2,1.4-0.3,3.1-0.4,5c-0.1,1.9-0.1,3.8-0.1,5.9c0,2.1,0.1,4.1,0.2,6c0.1,1.9,0.2,3.6,0.4,5.2c0.1,1.6,0.3,2.7,0.5,3.5l6.2-4.6
	c0.6,0.8,0.9,1.6,0.9,2.2c0,0.7-0.3,1.3-0.7,1.9c-0.5,0.6-1,1.1-1.8,1.7c-0.7,0.5-1.4,1.1-2.1,1.7c-0.7,0.6-1.3,1.2-1.7,1.9
	c-0.5,0.7-0.7,1.4-0.7,2.3c0.4,5.7,0.7,10.6,0.8,14.7c0.1,4.1,0,7.6-0.2,10.5c-0.2,2.9-0.5,5.2-1,6.9c-0.5,1.8-1,3.1-1.7,4.1
	c-0.7,1-1.4,1.7-2.2,2C196.1,454,195.2,454.2,194.3,454.2 M197.9,416.1c-1.5,0.3-3,1-4.4,2.1c-1.4,1.1-2.8,2.5-4,4.2
	c-1.2,1.7-2.3,3.5-3.3,5.6c-1,2.1-1.7,4.1-2.2,6.2s-0.7,4.1-0.7,6.1c0,2,0.4,3.7,1.2,5.2c0.7,1.5,1.9,2.7,3.4,3.6
	c1.5,0.9,3.5,1.3,5.9,1.2c0.9,0.1,1.6-0.3,2.2-1.3c0.6-0.9,1-2.3,1.4-4c0.3-1.7,0.5-3.7,0.7-5.9c0.1-2.3,0.2-4.7,0.2-7.2
	c0-2.5,0-5.2-0.1-7.9C198.1,421.3,198,418.7,197.9,416.1"/>
<path class="st2" d="M254,410c-0.2-0.9-0.3-2.3-0.4-4c-0.1-1.7-0.2-3.6-0.3-5.7c-0.1-2.1-0.2-4.2-0.3-6.5c-0.1-2.2-0.4-4.3-0.6-6.2
	c-0.3-1.9-0.7-3.6-1.1-5c-0.5-1.4-1-2.4-1.8-2.8c-0.7-0.5-1.6-0.3-2.6,0.4c-1,0.7-2.2,2.3-3.7,4.6c-0.3-0.1-0.5-0.3-0.8-0.6
	c-0.2-0.3-0.5-0.6-0.6-1c-0.2-0.4-0.2-0.8-0.2-1.2c0-0.4,0.1-0.7,0.4-1c2.6-2.5,4.6-4.1,6.2-4.8c1.6-0.7,2.8-0.8,3.7-0.2
	c0.9,0.6,1.6,1.7,2,3.3c0.4,1.6,0.8,3.5,1,5.7c0.3,2.2,0.6,4.5,0.9,6.9c0.3,2.5,0.8,4.8,1.5,7l10.4-14.2c1.5-3.2,1.9-5.4,1.1-6.5
	c-0.8-1.1-2.5-1.4-5-0.7c-0.5-0.9-0.4-1.6,0.2-2.2c0.6-0.6,1.4-1,2.5-1.1c1.1-0.2,2.2-0.1,3.3,0.3c1.2,0.4,2,1.1,2.6,2.2
	c0.6,1.1,0.7,2.6,0.3,4.4c-0.4,1.9-1.5,4.2-3.5,7c-3,4.7-5.4,8.6-7.3,11.6c-1.9,3-3.3,5.4-4.4,7.1c-1.1,1.7-1.8,2.8-2.3,3.2
	C254.5,410.5,254.2,410.5,254,410"/>
<path class="st2" d="M276.1,408.8c-0.9-1.9-1.4-4.2-1.6-7c-0.2-2.8-0.1-5.6,0.4-8.5c0.4-2.9,1.2-5.8,2.2-8.5c1-2.8,2.3-5.1,3.9-6.9
	c1.6-1.9,3.4-3.1,5.5-3.7c2.1-0.6,4.4-0.3,7,1.1c0.2,2.3,0.2,4.6,0.1,6.8c-0.1,2.2-0.3,4.5-0.6,6.8c-0.2,2.3-0.5,4.6-0.6,6.8
	c-0.2,2.3-0.2,4.6-0.1,6.9c0.5,1.5,1.2,2.5,2.1,3c0.8,0.5,1.8,0.7,2.8,0.5c1-0.2,2.1-0.6,3.2-1.3c1.1-0.7,2.2-1.4,3.1-2.3
	c0.5,1.1,0.5,2.1,0.1,3.1c-0.4,1-1.1,1.8-2,2.5c-0.9,0.7-2.1,1.1-3.3,1.4c-1.3,0.3-2.5,0.2-3.8-0.1c-1.3-0.4-2.4-1.1-3.5-2.2
	c-1.1-1.1-1.8-2.7-2.3-4.7c-1.4,2.2-2.7,3.8-4,4.8c-1.3,1.1-2.4,1.8-3.5,2.1c-1.1,0.3-2,0.4-2.9,0.2S276.6,409.2,276.1,408.8
	 M280.8,405.6c1.1-0.8,2.1-1.9,3-3.4c0.9-1.4,1.6-3.1,2.3-4.8c0.6-1.8,1.1-3.6,1.5-5.6c0.4-1.9,0.6-3.7,0.7-5.5
	c0.1-1.7,0.1-3.3,0-4.7c-0.1-1.4-0.4-2.4-0.8-3.1c-0.4-0.7-0.9-0.9-1.6-0.7c-0.7,0.2-1.5,1-2.4,2.4c-0.9,1.8-1.8,3.6-2.6,5.6
	c-0.8,2-1.4,3.9-2,5.8c-0.5,1.9-0.9,3.7-1.1,5.4c-0.2,1.7-0.3,3.2-0.2,4.5c0.1,1.3,0.4,2.3,0.9,3
	C279.1,405.3,279.8,405.6,280.8,405.6"/>
<path class="st2" d="M312.4,409.2c0.3-2,0.5-4.2,0.7-6.6c0.2-2.4,0.2-4.9,0.1-7.4c-0.1-2.6-0.5-5.1-1-7.5c-0.5-2.5-1.4-4.7-2.5-6.7
	l-4.2,7.8c-0.8-0.2-1.2-0.8-1.3-1.7c-0.1-0.9,0-2,0.3-3.2c0.3-1.2,0.8-2.4,1.5-3.6c0.7-1.2,1.4-2.3,2.2-3.1c0.8-0.9,1.6-1.4,2.4-1.7
	c0.8-0.3,1.6,0,2.2,0.7l3.2,9.7c1.7-3.3,3.3-5.8,4.8-7.3c1.5-1.5,2.8-2.4,4.1-2.6c1.2-0.2,2.4,0.2,3.4,1.1c1,0.9,1.8,2.2,2.6,3.8
	c0.7,1.6,1.3,3.5,1.8,5.6c0.5,2.1,0.9,4.2,1.1,6.4c0.2,2.2,0.3,4.3,0.3,6.3c0,2-0.2,3.7-0.5,5.1c0.6,1,1.3,1.4,2.1,1.2
	c0.7-0.2,1.5-0.8,2.3-1.8c0.8-0.9,1.6-2.1,2.5-3.5c0.8-1.4,1.6-2.6,2.4-3.9c0.6,0.6,0.9,1.3,1,2.2c0.1,0.9-0.1,1.9-0.6,3
	c-0.5,1.1-1.2,2.2-2.2,3.5c-1,1.2-2.3,2.4-4,3.7c-1.7,0.9-3,1-4,0.2c-0.9-0.8-1.7-2.2-2.2-4.1c-0.5-1.9-0.8-4.1-1-6.6
	c-0.2-2.5-0.4-5-0.6-7.3c-0.2-2.4-0.4-4.5-0.8-6.4c-0.3-1.9-0.9-3.2-1.7-3.8c-1.3-0.4-2.4-0.3-3.3,0.4c-0.9,0.7-1.6,1.8-2.2,3.2
	c-0.6,1.4-1.1,3.1-1.5,5c-0.4,1.9-0.8,3.9-1.1,5.9c-0.3,2-0.7,4-1,5.9c-0.3,1.9-0.7,3.6-1.1,4.9c-0.4,1.4-0.9,2.3-1.6,3
	C314.1,409.6,313.4,409.7,312.4,409.2"/>
<path class="st2" d="M368.9,397.9c0.6,0.8,0.7,1.7,0.1,2.8c-0.6,1.1-1.5,2.2-2.8,3.3c-1.3,1.1-2.8,2.1-4.6,3
	c-1.8,0.9-3.5,1.7-5.3,2.1c-1.8,0.5-3.4,0.6-5,0.5c-1.5-0.2-2.7-0.8-3.6-1.9c-1.6-4-2.5-7.8-2.6-11.5c-0.1-3.7,0.3-7,1.2-10
	c0.9-3,2.2-5.6,3.8-7.8c1.6-2.2,3.4-3.7,5.3-4.6c1.9-0.9,3.8-1,5.7-0.5c1.9,0.6,3.6,2,5,4.4c0.5,1.3,0.5,2.5-0.2,3.7
	c-0.7,1.1-1.8,2.3-3.4,3.4c-1.6,1.1-3.4,2.3-5.6,3.5c-2.2,1.2-4.4,2.5-6.8,4c-0.9,3.7-1.1,6.5-0.8,8.5c0.3,2,1,3.4,2.1,4.1
	c1.1,0.7,2.4,1,4,0.7c1.6-0.3,3.2-0.8,4.9-1.7c1.7-0.8,3.3-1.8,4.8-3C366.8,400,368,398.9,368.9,397.9 M362.6,380.4
	c-0.8-1.6-1.8-2.4-3.1-2.5c-1.2-0.1-2.5,0.3-3.7,1.1c-1.2,0.9-2.3,2.1-3.3,3.7c-1,1.6-1.6,3.3-1.9,5c1.1-0.7,2.4-1.4,3.9-2.1
	c1.5-0.7,2.9-1.4,4.1-2c1.2-0.6,2.3-1.2,3-1.8C362.5,381.3,362.8,380.8,362.6,380.4"/>
<path class="st2" d="M378.5,389.2c-0.4,0-0.9,0-1.4-0.2c-0.5-0.2-1-0.5-1.3-0.8c-0.3-0.4-0.4-0.8-0.3-1.3c0.1-0.5,0.5-1,1.3-1.6
	l17.3-0.6c0.6,0.1,1.1,0.3,1.6,0.5c0.5,0.3,0.8,0.6,0.9,0.9c0.2,0.4,0.2,0.7,0,1.1c-0.2,0.4-0.6,0.8-1.3,1.1L378.5,389.2z"/>
<path class="st3" d="M164.4,317.6c-6.5,5.7-14.7,8.7-22.3,7.7c-8.5-1.1-15.6-7-20.8-17.2c-9-17.8-0.2-34.2,5.8-42.4
	C135.9,290.2,152.5,307.8,164.4,317.6"/>
<path class="st3" d="M205.1,323.2c-5.4,0.6-14.3,0.5-24.9-4.5c-6.3-2.9-41.9-28.3-49.1-70.6c-5.5-31.8,29-49,43.7-54.8
	c-3.1,28.8,14.3,89.9,24.2,117.7C200.8,315.7,202.8,319.7,205.1,323.2"/>
<path class="st3" d="M375.7,265.6c6,8.2,14.9,24.7,5.8,42.4c-5.1,10.2-12.3,16.1-20.8,17.2c-7.5,0.9-15.7-1.9-22.3-7.7
	C350.4,307.8,367.1,290.2,375.7,265.6"/>
<path class="st3" d="M328.1,193.3c14.8,5.8,49.2,23.1,43.7,54.8c-7.3,42.2-42.9,67.7-49.1,70.6c-10.6,5-19.5,5.1-24.9,4.5
	c2.3-3.5,4.4-7.5,6.1-12.2C313.8,283.2,331.3,222.1,328.1,193.3"/>
<path class="st2" d="M378.4,256.1c5.6,6.4,23.4,29.9,10.4,55.6c-8.1,16-19.1,20.5-27,21.5c-1.3,0.2-2.6,0.2-3.9,0.2
	c-9.1,0-18.6-4-25.9-11c-2.6,1.8-4.6,3-5.8,3.6c-9.1,4.3-17.3,5.4-23.6,5.4c-4.7,0-8.3-0.7-10.6-1.2c-11.5,11.5-26,13.4-34.4,13.4
	c-2.8,0-5-0.2-6-0.4c-4.1,0.5-25.1,2.3-40.5-13c-2.3,0.6-5.9,1.2-10.6,1.2c-6.3,0-14.5-1.2-23.6-5.4c-1.2-0.6-3.2-1.8-5.8-3.6
	c-7.4,7-16.8,11-25.9,11c-1.3,0-2.6-0.1-3.9-0.2c-7.8-1-18.9-5.6-27-21.5c-13-25.7,4.8-49.2,10.4-55.6c-0.5-2.2-1.1-4.3-1.4-6.6
	c-7.4-42.5,43.4-62.1,54.1-65.7c8.5-22,28.3-29.9,74.3-29.9s65.8,7.9,74.3,29.9c10.6,3.6,61.4,23.2,54.1,65.7
	C379.5,251.8,379,254,378.4,256.1 M381.5,308.1c9-17.8,0.2-34.2-5.8-42.4c-8.6,24.6-25.3,42.2-37.2,51.9c6.5,5.7,14.7,8.6,22.3,7.7
	C369.3,324.1,376.4,318.2,381.5,308.1 M371.9,248.1c5.5-31.8-29-49-43.7-54.8c3.1,28.8-14.3,89.9-24.2,117.7
	c-1.7,4.7-3.8,8.7-6.1,12.2c5.4,0.6,14.3,0.5,24.9-4.5C329,315.8,364.6,290.4,371.9,248.1 M296.2,308.2
	c13.6-38.1,29.1-101,22.7-119.8c-5.7-16.7-18.6-26.4-67.4-26.4s-61.7,9.7-67.4,26.4c-6.5,18.8,9,81.7,22.7,119.8
	c11.6,32.4,42.7,27.3,44,27.1c0.2,0,0.5-0.1,0.7-0.1c0.2,0,0.5,0,0.7,0.1C253.5,335.5,284.6,340.6,296.2,308.2 M180.2,318.7
	c10.6,5,19.5,5.1,24.9,4.5c-2.3-3.5-4.4-7.5-6.1-12.2c-9.9-27.8-27.4-88.9-24.2-117.7c-14.8,5.8-49.2,23.1-43.7,54.8
	C138.4,290.4,174,315.8,180.2,318.7 M142.2,325.2c7.6,1,15.8-1.9,22.3-7.7c-11.9-9.7-28.6-27.3-37.2-51.9c-6,8.2-14.9,24.7-5.8,42.4
	C126.6,318.2,133.7,324.1,142.2,325.2"/>
<path class="st3" d="M318.9,188.4c6.5,18.8-9,81.7-22.7,119.8c-11.6,32.4-42.7,27.3-44,27.1c-0.2,0-0.5-0.1-0.7-0.1
	c-0.2,0-0.5,0-0.7,0.1c-1.3,0.2-32.4,5.3-44-27.1c-13.6-38.1-29.1-101-22.7-119.8c5.7-16.7,18.6-26.4,67.4-26.4
	S313.2,171.7,318.9,188.4"/>
<path class="st4" d="M153.8,308.1c-6.2,4.7-13.5,7.1-20.4,6.2c-4.4-0.6-8.4-2.4-11.9-5.5c5.1,9.6,12.1,15.3,20.3,16.4
	c7.6,1,15.8-2,22.3-7.7C160.9,315,157.4,311.8,153.8,308.1"/>
<path class="st4" d="M177.8,303.3c-4.3-1.3-22.3-10.5-37.9-28.1c13.3,25.9,35.2,41.3,40,43.5c10.6,5,19.5,5.1,24.9,4.5
	c-2.3-3.5-4.4-7.5-6.1-12.2c-0.6-1.7-1.3-3.6-1.9-5.6C191.7,305.9,185.3,305.6,177.8,303.3"/>
<path class="st4" d="M347.9,308.6c-3.4,3.5-6.8,6.5-9.8,9c6.5,5.7,14.7,8.6,22.3,7.7c8.5-1.1,15.6-7,20.8-17.2
	c0.1-0.3,0.3-0.6,0.4-0.9c-4,4-8.6,6.5-13.7,7.1C361.2,315.1,354,313,347.9,308.6"/>
<path class="st4" d="M367.9,262c-15.4,24.6-38.3,38-43.2,39.8c-7.5,2.8-14,3.4-19.1,3.1c-0.7,2.1-1.4,4.2-2.1,6.1
	c-1.7,4.7-3.8,8.7-6.1,12.2c5.4,0.7,14.3,0.5,24.9-4.5C327.8,316.1,356.3,295.9,367.9,262"/>
<path class="st4" d="M251.9,317.5c-0.3,0-0.6-0.1-0.8-0.1c-0.3,0-0.6,0-0.8,0.1c-1.5,0.2-36.6,5.3-49.7-27.1c-0.2-0.5-0.4-1-0.6-1.4
	c2.1,6.8,4.3,13.3,6.4,19.2c11.6,32.4,42.7,27.3,44,27.1c0.2,0,0.5-0.1,0.7-0.1c0.2,0,0.5,0,0.7,0.1c1.3,0.2,32.4,5.3,44-27.1
	c2.1-5.9,4.3-12.4,6.4-19.2c-0.2,0.5-0.4,1-0.6,1.5C288.5,322.8,253.4,317.7,251.9,317.5"/>
<path class="st2" d="M222.4,201.2c0-7.8-4.9-14.1-10.8-14.1c-6,0-10.8,6.3-10.8,14.1c0,7.8,4.9,14.1,10.8,14.1
	C217.5,215.3,222.4,209,222.4,201.2"/>
<path class="st2" d="M239.1,201.2c-3.4,0-6.2,3.6-6.2,8.1c0,4.5,2.8,8.1,6.2,8.1c3.4,0,6.2-3.6,6.2-8.1
	C245.3,204.8,242.6,201.2,239.1,201.2"/>
<path class="st2" d="M220,222.9c-3.4,0-6.2,3.6-6.2,8.1c0,4.5,2.8,8.1,6.2,8.1c3.4,0,6.2-3.6,6.2-8.1
	C226.2,226.5,223.4,222.9,220,222.9"/>
<path class="st2" d="M87.2,148.6c-0.5,3.3,0.7,6.5,3.5,9.7l2.5,2.8l18.9-16.7l7.6,8.6l-18.9,16.7l14.8,16.8l-10.6,9.4l-24.8-28.2
	c-5.2-5.9-7.5-12.2-6.7-18.7c0.8-6.6,4.5-12.8,11.2-18.6c2.6-2.3,5.3-4.2,8.1-5.7c2.8-1.5,5.5-2.5,8.2-2.9l4.2,11.3
	c-4.1,0.6-8,2.5-11.7,5.8C89.7,142,87.7,145.3,87.2,148.6"/>
<path class="st2" d="M175.7,97l18.4,43.6l-12,5.1l-2.1-5c-1.5,5.1-5.3,8.9-11.2,11.4c-4.1,1.7-8.2,2.4-12.3,1.9
	c-4.1-0.4-7.8-2-11.1-4.6c-3.3-2.6-5.9-6.2-7.8-10.6c-1.9-4.5-2.6-8.8-2.2-13c0.4-4.2,1.9-7.9,4.5-11.1c2.5-3.2,5.8-5.7,9.9-7.4
	c5.5-2.3,10.6-2.4,15.2-0.2l-1.9-4.6L175.7,97z M173.1,134.1c1.2-3.1,1-6.4-0.6-10.1c-1.5-3.7-3.8-6.2-6.8-7.5c-3-1.3-6.1-1.3-9.3,0
	c-3.2,1.4-5.4,3.6-6.6,6.6c-1.2,3.1-1,6.4,0.6,10.1c1.5,3.7,3.8,6.2,6.8,7.5c3,1.3,6.1,1.3,9.4-0.1
	C169.7,139.4,171.9,137.2,173.1,134.1"/>
<path class="st2" d="M229,88.3c2.6-1.5,5.7-2.5,9.3-2.9l1.5,12.6c-1.5,0.1-2.5,0.1-3.1,0.2c-3.9,0.5-6.8,1.9-8.7,4.4
	c-1.9,2.5-2.6,5.9-2.1,10.2l2.7,22.2l-13.6,1.7l-5.8-46.9l12.9-1.6l0.8,6.2C224.4,91.7,226.4,89.8,229,88.3"/>
<path class="st2" d="M267.2,86.5l13.6,1.1l-3.8,47.1l-13.6-1.1L267.2,86.5z M268.6,77.8c-1.5-1.6-2.1-3.5-1.9-5.6
	c0.2-2.2,1.1-3.9,2.8-5.2c1.7-1.3,3.8-1.9,6.3-1.7c2.5,0.2,4.5,1.1,5.9,2.6c1.5,1.5,2.1,3.3,1.9,5.4c-0.2,2.3-1.1,4.1-2.8,5.5
	c-1.7,1.4-3.8,1.9-6.3,1.7C272,80.2,270.1,79.3,268.6,77.8"/>
<path class="st2" d="M353.6,110c2.3,4.5,2.4,10,0.2,16.5l-8.5,25.7l-13-4.3l7.8-23.7c1.2-3.6,1.3-6.5,0.3-8.7
	c-1-2.3-2.9-3.9-5.9-4.9c-3.3-1.1-6.2-0.9-8.8,0.5c-2.6,1.4-4.6,4.1-5.9,8.1l-7.3,22.2l-13-4.3l14.8-44.9l12.4,4.1l-1.7,5.3
	c2.3-1.3,5-2.1,7.8-2.3c2.9-0.2,5.9,0.2,8.9,1.2C347.4,102.4,351.3,105.6,353.6,110"/>
<path class="st2" d="M393.7,171.4c2,0.6,4.1,0.7,6.3,0.5l1,10.7c-6.6,1.4-13.3-0.5-20.1-5.7c-4.2-3.2-7.3-6.9-9.3-11
	c-2-4.1-2.7-8.3-2.3-12.6s2.1-8.3,5-12c2.8-3.7,6.2-6.3,10.2-8c4-1.6,8.1-2.1,12.5-1.4c4.3,0.7,8.4,2.5,12.2,5.4
	c3.6,2.7,6.2,6,8,9.7c1.8,3.7,2.4,7.7,2,11.9c-0.4,4.2-2.2,8.2-5.2,12.2l-31.8-15.8c-0.6,2.5-0.5,4.8,0.5,7c1,2.2,2.7,4.3,5.2,6.2
	C389.8,169.8,391.7,170.9,393.7,171.4 M394.1,142.9c-3.1,0.5-5.8,2.2-8.3,5.3l21,10.4c1-2.3,1.1-4.7,0.4-7.1
	c-0.7-2.4-2.1-4.4-4.4-6.1C400.1,143.3,397.2,142.5,394.1,142.9"/>
<rect class="st5" width="500" height="500"/>
</svg>
