<?xml version="1.0" encoding="UTF-8" standalone="no"?>
<!-- Generator: Adobe Illustrator 22.1.0, SVG Export Plug-In . SVG Version: 6.00 Build 0)  -->

<svg
   version="1.1"
   id="Layer_1"
   x="0px"
   y="0px"
   viewBox="0 0 93.5 22"
   xml:space="preserve"
   sodipodi:docname="novanet-logo.svg"
   width="93.5"
   height="22"
   inkscape:version="1.2.1 (9c6d41e410, 2022-07-14)"
   xmlns:inkscape="http://www.inkscape.org/namespaces/inkscape"
   xmlns:sodipodi="http://sodipodi.sourceforge.net/DTD/sodipodi-0.dtd"
   xmlns="http://www.w3.org/2000/svg"
   xmlns:svg="http://www.w3.org/2000/svg"><defs
   id="defs338" /><sodipodi:namedview
   id="namedview336"
   pagecolor="#ffffff"
   bordercolor="#000000"
   borderopacity="0.25"
   inkscape:showpageshadow="2"
   inkscape:pageopacity="0.0"
   inkscape:pagecheckerboard="0"
   inkscape:deskcolor="#d1d1d1"
   showgrid="false"
   inkscape:zoom="91.727908"
   inkscape:cx="96.426487"
   inkscape:cy="9.342849"
   inkscape:window-width="1920"
   inkscape:window-height="1043"
   inkscape:window-x="0"
   inkscape:window-y="0"
   inkscape:window-maximized="1"
   inkscape:current-layer="Layer_1" />
<style
   type="text/css"
   id="style305">
	.st0{fill:#099BC3;}
	.st1{fill:#404040;}
</style>
<g
   id="g333"
   transform="matrix(0.3461351,0,0,0.3461351,0.00457705,0)">
	<g
   transform="translate(199.91,136.05)"
   id="g309">
		<path
   class="st0"
   d="m -156.4,-102.4 c -8.1,0 -14.6,6.5 -14.6,14.6 0,8.1 6.5,14.6 14.6,14.6 8.1,0 14.6,-6.5 14.6,-14.6 0,-8.1 -6.5,-14.6 -14.6,-14.6 m 0,19.1 c -2.8,0 -4.9,-2.1 -4.9,-4.9 0,-2.8 2.1,-4.9 4.9,-4.9 2.8,0 4.9,2.1 4.9,4.9 -0.1,2.9 -2.2,4.9 -4.9,4.9"
   id="path307" />
	</g>
	<g
   transform="translate(199.91,261.7)"
   id="g313">
		<path
   class="st0"
   d="m -156.4,-261.7 c -8.1,0 -14.6,6.5 -14.6,14.6 0,8.1 6.5,14.6 14.6,14.6 8.1,0 14.6,-6.5 14.6,-14.6 -0.1,-8.1 -6.5,-14.6 -14.6,-14.6 m 0,19.2 c -2.8,0 -4.9,-2.1 -4.9,-4.9 0,-2.8 2.1,-4.9 4.9,-4.9 2.8,0 4.9,2.1 4.9,4.9 0,2.8 -2.2,4.9 -4.9,4.9"
   id="path311" />
	</g>
	<g
   transform="translate(90.707,198.4)"
   id="g317">
		<path
   class="st0"
   d="m -76.1,-181.8 c -8.1,0 -14.6,6.5 -14.6,14.6 0,8.1 6.5,14.6 14.6,14.6 8.1,0 14.6,-6.5 14.6,-14.6 0,-8.1 -6.5,-14.6 -14.6,-14.6 m 0,19.2 c -2.8,0 -4.9,-2.1 -4.9,-4.9 0,-2.8 2.1,-4.9 4.9,-4.9 2.8,0 4.9,2.1 4.9,4.9 -0.1,2.9 -2.2,4.9 -4.9,4.9"
   id="path315" />
	</g>
	<path
   class="st1"
   d="m 91.9,33.7 c 0,-8 -6.5,-14.5 -14.5,-14.5 h -5 v 3.6 C 71.9,20.7 70,19.2 67.7,19.2 65,19.2 62.9,21.4 62.9,24 v 9.7 9.7 c 0,2.7 2.2,4.8 4.8,4.8 2.7,0 4.8,-2.2 4.8,-4.8 v -9.7 c 0,-2.7 2.2,-4.8 4.8,-4.8 2.7,0 4.8,2.2 4.8,4.8 v 9.7 c 0,2.7 2.2,4.8 4.8,4.8 2.7,0 4.8,-2.2 4.8,-4.8 z"
   id="path319" />
	<path
   class="st1"
   d="m 215.5,33.7 c 0,-8 -6.5,-14.5 -14.5,-14.5 h -5 v 3.6 c -0.5,-2.1 -2.4,-3.6 -4.7,-3.6 -2.7,0 -4.8,2.2 -4.8,4.8 v 9.7 9.7 c 0,2.7 2.2,4.8 4.8,4.8 2.7,0 4.8,-2.2 4.8,-4.8 v -9.7 c 0,-2.7 2.2,-4.8 4.8,-4.8 2.7,0 4.8,2.2 4.8,4.8 v 9.7 c 0,2.7 2.2,4.8 4.8,4.8 2.7,0 4.8,-2.2 4.8,-4.8 z"
   id="path321" />
	<path
   class="st1"
   d="m 242.6,38.6 4.8,-4.8 c 0,-8 -6.5,-14.5 -14.5,-14.5 -8,0 -14.5,6.5 -14.5,14.5 0,8 6.5,14.5 14.5,14.5 h 9.7 c 2.7,0 4.8,-2.2 4.8,-4.8 0,-2.6 -2.1,-4.9 -4.8,-4.9 z M 230.7,38 c -1.6,-0.8 -2.6,-2.4 -2.6,-4.3 0,-2.7 2.2,-4.8 4.8,-4.8 1.9,0 3.5,1.1 4.3,2.6 z"
   id="path323" />
	<path
   class="st1"
   d="m 150.8,19.7 c -2.4,-1.2 -5.3,-0.2 -6.5,2.2 L 139,32.6 133.6,21.9 c -1.2,-2.4 -4.1,-3.4 -6.5,-2.2 -2.4,1.2 -3.4,4.1 -2.2,6.5 l 9.5,19 c 0.9,1.8 2.2,3 4.5,3 0,0 0,0 0,0 0,0 0,0 0,0 2.2,0 3.6,-1.4 4.5,-3 l 9.5,-19 c 1.3,-2.4 0.3,-5.3 -2.1,-6.5 z"
   id="path325" />
	<path
   class="st1"
   d="m 109.3,19.2 c -8,0 -14.5,6.5 -14.5,14.5 0,8 6.5,14.5 14.5,14.5 8,0 14.5,-6.5 14.5,-14.5 0,-8 -6.5,-14.5 -14.5,-14.5 z m 0,19.4 c -2.7,0 -4.8,-2.2 -4.8,-4.8 0,-2.6 2.2,-4.8 4.8,-4.8 2.7,0 4.8,2.2 4.8,4.8 0,2.6 -2.1,4.8 -4.8,4.8 z"
   id="path327" />
	<path
   class="st1"
   d="m 168.5,38.6 c -2.7,0 -4.8,-2.2 -4.8,-4.8 0,-2.7 2.2,-4.8 4.8,-4.8 2.7,0 4.8,2.2 4.8,4.8 0.1,2.6 -2.1,4.8 -4.8,4.8 z m 14.6,4.8 m 0,-9.7 m 0,9.7 m 0,-9.7 c 0,-8 -6.5,-14.5 -14.5,-14.5 -8,0 -14.5,6.5 -14.5,14.5 0,8 6.5,14.5 14.5,14.5 h 5 v -3.6 c 0.5,2.1 2.4,3.6 4.7,3.6 2.7,0 4.8,-2.2 4.8,-4.8 v -9.7 m 0,9.7 m 0,0"
   id="path329" />
	<path
   class="st1"
   d="m 260.3,43.4 c 0,2.7 -2.2,4.8 -4.8,4.8 -2.7,0 -4.8,-2.2 -4.8,-4.8 V 13.2 c 0,-2.7 2.2,-4.8 4.8,-4.8 2.7,0 4.8,2.2 4.8,4.8 v 6 h 4.8 c 2.7,0 4.8,2.2 4.8,4.8 0,2.7 -2.2,4.8 -4.8,4.8 -2.7,0 -4.8,2.2 -4.8,4.8 z"
   id="path331" />
</g>
</svg>
